<svg width="21" height="21" viewBox="0 0 21 21" fill="none" xmlns="http://www.w3.org/2000/svg">
<path d="M6.43152 20.5012H14.5699C15.9336 20.5012 16.8103 19.6777 16.8812 18.3139L17.4745 5.56177H18.4486C18.9003 5.56177 19.2456 5.20754 19.2456 4.76476C19.2456 4.32198 18.8914 3.98546 18.4486 3.98546H14.5167V2.65712C14.5167 1.29335 13.6489 0.496338 12.17 0.496338H8.80484C7.32594 0.496338 6.45809 1.29335 6.45809 2.65712V3.98546H2.5439C2.10111 3.98546 1.74689 4.33083 1.74689 4.76476C1.74689 5.2164 2.10111 5.56177 2.5439 5.56177H3.51802L4.11134 18.3139C4.18219 19.6865 5.05004 20.5012 6.43152 20.5012ZM8.1141 2.73682C8.1141 2.28518 8.4329 1.99294 8.91996 1.99294H12.0549C12.5419 1.99294 12.8607 2.28518 12.8607 2.73682V3.98546H8.1141V2.73682ZM6.60864 18.9161C6.12158 18.9161 5.76735 18.553 5.74078 18.0305L5.14746 5.56177H15.8185L15.2429 18.0305C15.2252 18.5619 14.8798 18.9161 14.375 18.9161H6.60864ZM7.88385 17.4903C8.26464 17.4903 8.50375 17.2512 8.49489 16.897L8.22922 7.63399C8.22036 7.27976 7.97241 7.04952 7.60932 7.04952C7.23739 7.04952 6.99829 7.28862 7.00714 7.64284L7.27281 16.9059C7.28167 17.2601 7.52962 17.4903 7.88385 17.4903ZM10.4963 17.4903C10.8682 17.4903 11.125 17.2601 11.125 16.9059V7.64284C11.125 7.28862 10.8682 7.04952 10.4963 7.04952C10.1243 7.04952 9.87637 7.28862 9.87637 7.64284V16.9059C9.87637 17.2601 10.1243 17.4903 10.4963 17.4903ZM13.1087 17.4992C13.4629 17.4992 13.7109 17.2601 13.7197 16.9059L13.9854 7.64284C13.9942 7.28862 13.7551 7.05837 13.3832 7.05837C13.0201 7.05837 12.7722 7.28862 12.7633 7.64284L12.4976 16.9059C12.4888 17.2512 12.7279 17.4992 13.1087 17.4992Z" fill="#2D2D2D"/>
</svg>
